<svg width="50" height="50" viewBox="0 0 50 50" fill={iconFill} xmlns="http://www.w3.org/2000/svg">
    <path d="M27.3752 1.53176L25.8992 0.793353C24.6769 0.181793 23.1902 0.676725 22.5784 1.8989L22.2096 2.63648C21.6804 2.36978 21.0478 2.41279 20.5596 2.74868C18.0415 1.61509 7.59662 -2.54638 0.865992 3.20493C0.336246 3.61162 0.11065 4.3019 0.297978 4.94294C0.485306 5.58399 1.0471 6.04417 1.71248 6.10162C6.98956 6.39897 12.1505 7.76951 16.8799 10.1294C16.9175 10.7113 17.2602 11.2298 17.7808 11.4924L5.02499 36.9958C4.48666 38.0517 4.55584 39.3151 5.20622 40.3059C5.8566 41.2966 6.9883 41.8626 8.17114 41.7885C9.35399 41.7145 10.4063 41.0119 10.9281 39.9478L23.684 14.4452C24.2056 14.7091 24.8287 14.6725 25.3159 14.3495C30.0402 16.7178 34.2318 20.0248 37.6345 24.0684C38.0798 24.5656 38.7847 24.7386 39.4097 24.5041C40.0347 24.2696 40.4518 23.6757 40.4602 23.0082C41.0253 14.1746 31.4352 8.31271 29.0161 6.98111C28.9925 6.38719 28.6458 5.85379 28.1127 5.59093L28.4824 4.85334C28.7762 4.26608 28.8246 3.58613 28.6169 2.96316C28.4093 2.34019 27.9626 1.82527 27.3752 1.53176ZM24.0544 2.64143C24.1517 2.44423 24.3237 2.29402 24.5322 2.22416C24.7407 2.1543 24.9684 2.17056 25.1649 2.26934L26.6409 3.01187C26.8366 3.10976 26.9855 3.28142 27.0546 3.48907C27.1238 3.69672 27.1076 3.92334 27.0097 4.11907L26.6401 4.85582L23.6856 3.37571L24.0544 2.64143ZM1.93771 4.4565C7.64942 -0.421922 16.9278 2.99372 19.6116 4.14299L17.4096 8.55197C12.5751 6.17386 7.31564 4.78166 1.93771 4.4565ZM9.45212 39.2078C9.03581 40.0062 8.05625 40.3234 7.2509 39.9207C6.44555 39.5179 6.11182 38.5438 6.50097 37.7318L19.2568 12.2308L22.208 13.7076L9.45212 39.2078ZM24.4224 12.9692L23.6848 12.6004L18.5201 10.0164L21.4729 4.11411L27.3752 7.06609L24.4224 12.97V12.9692ZM38.8134 22.9034C35.3288 18.7963 31.062 15.4232 26.2614 12.9808L28.465 8.57095C30.9962 10.0271 39.2944 15.3956 38.8134 22.9034Z" fill={iconFill}/>
    <path d="M48.6645 8.5413C47.076 9.13098 45.7785 10.3141 45.045 11.8414C44.1235 11.9545 42.3554 12.3686 41.5865 13.904C41.4546 14.1684 41.4741 14.483 41.6376 14.7291C43.5238 18.0289 43.7974 22.0102 42.3802 25.537C42.2938 25.7723 42.3174 26.0338 42.4445 26.2498C42.6516 26.6013 44.3751 29.7422 41.0783 31.7206C40.8987 31.8281 40.767 32.0002 40.7103 32.2016C40.3744 33.2308 39.6279 34.0752 38.6477 34.5348C37.3722 35.0232 35.704 34.6371 33.6909 33.3798C33.5591 33.2953 33.406 33.2501 33.2495 33.2494C33.1802 33.2494 26.5403 33.3261 23.6973 39.6657C21.3742 39.0066 18.9147 40.1198 17.8767 42.3C15.9494 42.2745 10.0339 42.6828 8.52325 48.7254C8.4618 48.9718 8.51723 49.2327 8.67353 49.4329C8.82984 49.633 9.0696 49.75 9.32353 49.7501H48.1001C49.0114 49.7501 49.7502 49.0113 49.7502 48.1V9.32344C49.75 9.05838 49.6225 8.80956 49.4074 8.65464C49.1923 8.49971 48.9159 8.45755 48.6645 8.5413ZM48.1001 48.1H10.4563C12.3671 43.3973 18.0516 43.941 18.3098 43.9699C18.678 44.0101 19.0279 43.7999 19.1654 43.4559C19.489 42.5394 20.1815 41.8002 21.075 41.4174C21.9684 41.0346 22.9813 41.0433 23.8681 41.4412C24.0742 41.5239 24.305 41.5201 24.5083 41.4305C24.7115 41.3409 24.8701 41.1731 24.948 40.9651C26.1926 37.5132 29.3708 35.1322 33.0334 34.9077C35.4185 36.3466 37.505 36.7393 39.2384 36.0719C40.6049 35.4865 41.6706 34.3651 42.1855 32.9705C44.8734 31.2124 45.2934 28.3784 44.0517 25.7655C45.4211 22.0086 45.149 17.849 43.3017 14.3025C43.9569 13.7625 44.7762 13.4614 45.625 13.4486C45.9803 13.4487 46.2957 13.2213 46.408 12.8843C46.723 11.992 47.3161 11.2244 48.1001 10.6946V48.1Z" fill={iconFill}/>
    <path d="M42.207 40.2137L40.6353 39.7186C39.7671 39.443 38.8398 39.9231 38.5636 40.7912L38.0686 42.3645C37.7936 43.2325 38.2735 44.1592 39.1412 44.4354C40.8374 44.9716 40.8795 45.0129 41.2137 45.0129C41.9319 45.0101 42.5658 44.543 42.7812 43.8578L43.2762 42.2845C43.5516 41.4175 43.0733 40.4912 42.207 40.2137ZM41.217 43.3603L39.6436 42.8653L40.1386 41.292L41.712 41.787L41.217 43.3603Z" fill={iconFill}/>
    <path d="M31.6399 42.2314C31.3638 41.3638 30.4371 40.8838 29.5691 41.1588L27.9966 41.6539C27.1289 41.93 26.649 42.8567 26.924 43.7247L27.4191 45.2972C27.6952 46.1653 28.6225 46.6453 29.4907 46.3697L31.0641 45.8747C31.9317 45.5986 32.4117 44.6719 32.1366 43.8039L31.6399 42.2314ZM28.9907 44.7997L28.4957 43.2272L30.0691 42.7322L30.5641 44.3055L28.9907 44.7997Z" fill={iconFill}/>
    <path d="M34.8996 38.1996C34.444 38.1996 34.0746 38.569 34.0746 39.0246V39.8497C34.0746 40.3053 34.444 40.6747 34.8996 40.6747C35.3553 40.6747 35.7246 40.3053 35.7246 39.8497V39.0246C35.7246 38.569 35.3553 38.1996 34.8996 38.1996Z" fill={iconFill}/>
    <path d="M21.1159 44.2166L20.2909 45.0416C19.9782 45.3653 19.9827 45.8799 20.3009 46.1982C20.6192 46.5164 21.1337 46.5209 21.4575 46.2082L22.2825 45.3832C22.5952 45.0595 22.5907 44.5449 22.2724 44.2266C21.9542 43.9084 21.4396 43.9039 21.1159 44.2166Z" fill={iconFill}/>
    <path d="M45.3834 35.1414C45.0596 34.8287 44.5451 34.8332 44.2268 35.1514C43.9086 35.4697 43.9041 35.9843 44.2168 36.308C45.0913 37.1834 45.1961 37.3748 45.6251 37.3748C45.9587 37.3747 46.2595 37.1737 46.3872 36.8654C46.5148 36.5572 46.4443 36.2024 46.2084 35.9664L45.3834 35.1414Z" fill={iconFill}/>
    <path d="M27.4744 28.1213C27.4744 30.6747 29.1385 32.2332 31.857 31.3389C32.748 31.136 33.4998 30.5418 33.9031 29.7218C34.3907 28.5428 33.7381 27.2558 33.1606 26.1197C31.9082 23.6586 27.4744 25.6882 27.4744 28.1213ZM32.3784 29.0948C32.1598 29.622 30.414 30.2705 29.7078 29.7548C29.2783 29.3253 29.0643 28.7257 29.1245 28.1213C29.1245 27.2376 31.3339 26.1709 31.6887 26.8713C32.1045 27.6898 32.5764 28.6171 32.3784 29.0948Z" fill={iconFill}/>
</svg>