<svg width="64" height="64" viewBox="0 0 64 64" fill="none" xmlns="http://www.w3.org/2000/svg">
    <path d="M1.81962 6.9017C1.81962 4.231 4.18244 1.69521 6.89465 1.7471C15.1074 1.7644 23.3202 1.71943 31.5329 1.76786C34.4769 2.07575 36.4834 5.14083 36.1271 7.99143C29.1597 7.99489 22.1889 7.97413 15.2216 7.99489C13.1632 7.9257 11.347 9.02235 9.84557 10.3231C8.9046 11.0634 7.91865 11.8453 7.42741 12.9731C6.44146 14.8342 6.70784 16.9964 6.68708 19.0202C6.69054 24.6487 6.71476 30.2807 6.67325 35.9093C4.134 35.5737 1.89227 33.4046 1.82308 30.7858C1.80233 22.8256 1.81271 14.8619 1.81962 6.9017Z" fill="#4FC0EF"/>
    <path d="M9.84563 10.323C11.347 9.02223 13.1633 7.92558 15.2216 7.99477C22.189 7.97401 29.1598 7.99477 36.1272 7.99131C36.1133 8.51715 36.0995 9.04299 36.0822 9.56883C29.4677 9.55153 22.8567 9.58612 16.2422 9.55153C15.0314 9.55153 13.7617 9.6138 12.6789 10.2227C10.8627 11.1706 9.68304 13.1597 9.69342 15.2043C9.65536 22.099 9.72801 28.9902 9.72109 35.8849C9.17796 35.8849 8.63482 35.8815 8.08823 35.8815C8.10898 28.9902 8.08131 22.1024 8.0986 15.2147C8.05709 13.4227 8.85277 11.7621 9.84563 10.323Z" fill="white"/>
    <path d="M17.2419 19.3002C18.5738 17.0066 21.2618 15.8269 23.8495 15.858C31.0313 15.8407 38.2097 15.8615 45.3881 15.8511C45.3673 16.3908 45.3466 16.927 45.3327 17.4667C38.1786 17.4736 31.0279 17.4736 23.8737 17.4701C21.8569 17.4182 19.712 18.2554 18.6569 20.0543C17.1209 22.5486 17.581 25.6033 17.5118 28.3882C17.5879 33.8956 17.3526 39.4169 17.6329 44.9209L17.5567 45.0386C17.0067 45.1493 16.4393 45.1735 15.8789 45.2219C16 39.839 15.8616 34.4561 15.9516 29.0766C16.0588 25.8109 15.4292 22.2338 17.2419 19.3002Z" fill="white"/>
    <path d="M12.679 10.2226C13.7618 9.61374 15.0314 9.55147 16.2422 9.55147C22.8567 9.58606 29.4677 9.55147 36.0822 9.56877C38.317 9.65871 40.794 9.13287 42.7728 10.4751C44.6028 11.5891 45.4885 13.7616 45.3881 15.8511C38.2098 15.8615 31.0314 15.8408 23.8495 15.8581C21.2619 15.8269 18.5739 17.0066 17.242 19.3002C15.4292 22.2338 16.0588 25.8109 15.9516 29.0767C15.8617 34.4561 16 39.839 15.879 45.222C13.8483 45.2635 11.7484 44.4055 10.6344 42.6481C9.24717 40.6728 9.74533 38.1404 9.72112 35.8849C9.72803 28.9902 9.65539 22.0989 9.69344 15.2042C9.68306 13.1597 10.8627 11.1705 12.679 10.2226Z" fill="#71B164"/>
    <path d="M7.42748 12.9731C7.91873 11.8453 8.90467 11.0634 9.84564 10.3231C8.85278 11.7623 8.0571 13.4228 8.09862 15.2148C8.08132 22.1026 8.10899 28.9904 8.08824 35.8816C7.61775 35.8885 7.14381 35.8989 6.67332 35.9093C6.71483 30.2807 6.69062 24.6487 6.68716 19.0202C6.70792 16.9964 6.44154 14.8343 7.42748 12.9731Z" fill="#71ADCA"/>
    <path d="M18.6569 20.0543C19.712 18.2554 21.8569 17.4182 23.8737 17.4701C31.0279 17.4736 38.1786 17.4736 45.3327 17.4667C49.0171 17.4805 52.7014 17.4632 56.3857 17.4701C59.5892 17.4286 62.6646 20.2273 62.6024 23.4896C62.5955 33.9856 62.5955 44.4816 62.6024 54.9776C62.5782 56.14 62.7304 57.3646 62.2668 58.4647C61.3535 60.8241 58.9561 62.5469 56.4065 62.5296C45.5611 62.5365 34.7122 62.533 23.8668 62.5296C21.3898 62.5676 19.0339 60.9624 18.0549 58.7069C17.3526 57.2332 17.5395 55.5622 17.5187 53.9813C17.5533 51.0027 17.4668 48.0172 17.5568 45.0386L17.6329 44.9209C17.3526 39.4169 17.5879 33.8956 17.5118 28.3882C17.581 25.6033 17.1209 22.5486 18.6569 20.0543ZM36.1617 43.423C35.1723 44.6303 34.4873 46.0729 33.3492 47.1592C32.2456 45.2254 31.4672 42.8556 29.4262 41.6898C28.3952 41.6863 27.5373 42.4198 26.7935 43.0563C26.1743 43.6825 25.4201 44.3847 25.3717 45.3153C26.3922 47.0035 27.8521 48.4081 28.6755 50.2277C28.5924 52.21 30.118 54.2615 32.1418 54.5002C33.4253 54.6835 35.0478 54.7423 35.9092 53.58C38.2616 50.5322 39.936 47.0243 42.1985 43.9108C44.6166 40.607 47.2977 37.5004 50.1033 34.5218C51.6255 33.0861 52.3139 31.0105 53.8949 29.6198C53.8015 29.5263 53.6112 29.3326 53.5178 29.2392C54.2512 28.485 55.0642 27.807 55.7353 26.9975C56.1193 26.3506 56.2439 25.5895 56.4757 24.8803C48.6988 29.8204 41.7868 36.127 36.1617 43.423Z" fill="#0082C9"/>
    <path d="M36.1617 43.4232C41.7868 36.1272 48.6988 29.8206 56.4756 24.8805C56.2439 25.5897 56.1193 26.3508 55.7353 26.9977C55.0642 27.8072 54.2512 28.4852 53.5178 29.2394C48.384 34.2418 43.7448 39.7769 40.019 45.9105C38.5453 48.2561 37.2826 50.7434 35.584 52.9436C34.7779 54.1717 33.1035 53.9019 31.8547 53.8189C30.0246 53.5975 29.5092 51.5564 28.6754 50.2279C27.8521 48.4083 26.3922 47.0037 25.3716 45.3155C25.4201 44.3849 26.1742 43.6826 26.7935 43.0565C27.5373 42.4199 28.3952 41.6865 29.4261 41.69C31.4672 42.8558 32.2456 45.2256 33.3492 47.1594C34.4873 46.0731 35.1723 44.6305 36.1617 43.4232Z" fill="#FEFEFE"/>
    <path d="M40.019 45.9105C43.7448 39.7769 48.384 34.2418 53.5178 29.2394C53.6112 29.3328 53.8015 29.5265 53.8949 29.6199C52.3139 31.0106 51.6255 33.0863 50.1033 34.522C47.2977 37.5006 44.6166 40.6072 42.1985 43.911C39.936 47.0245 38.2616 50.5324 35.9092 53.5801C35.0478 54.7425 33.4253 54.6837 32.1418 54.5004C30.118 54.2617 28.5924 52.2102 28.6754 50.2279C29.5092 51.5564 30.0246 53.5974 31.8547 53.8188C33.1036 53.9019 34.7779 54.1717 35.584 52.9436C37.2826 50.7434 38.5453 48.256 40.019 45.9105Z" fill="#0076B1"/>
</svg>